<?xml version="1.0" standalone="no"?>
<!DOCTYPE svg PUBLIC "-//W3C//DTD SVG 20010904//EN"
 "http://www.w3.org/TR/2001/REC-SVG-20010904/DTD/svg10.dtd">
<svg version="1.0" xmlns="http://www.w3.org/2000/svg"
 width="5475.000000pt" height="5893.000000pt" viewBox="0 0 5475.000000 5893.000000"
 preserveAspectRatio="xMidYMid meet">

<g transform="translate(0.000000,5893.000000) scale(0.100000,-0.100000)"
fill="#000000" stroke="none">
<path d="M26600 51799 c-2523 -91 -4921 -569 -7230 -1442 -2525 -954 -4845
-2348 -6895 -4142 -612 -535 -1354 -1267 -1902 -1875 -1473 -1636 -2715 -3498
-3635 -5450 -982 -2080 -1621 -4212 -1943 -6474 -141 -991 -210 -1913 -222
-2966 -24 -2210 265 -4366 872 -6485 945 -3301 2649 -6358 4974 -8925 337
-372 961 -1005 1321 -1341 1314 -1224 2703 -2245 4285 -3149 138 -78 283 -165
323 -193 76 -52 186 -162 197 -196 6 -20 14 -21 137 -21 l131 0 65 -41 c88
-56 599 -308 903 -446 2513 -1142 5125 -1800 7874 -1982 574 -39 810 -46 1510
-46 798 0 1182 15 1915 76 2773 227 5542 992 8045 2224 138 68 282 144 320
169 l70 46 132 0 c124 0 132 1 138 21 11 34 121 144 197 196 40 28 174 107
297 177 1354 769 2632 1677 3791 2695 626 550 1337 1252 1888 1864 1722 1912
3092 4079 4077 6442 1304 3130 1880 6528 1690 9960 -238 4272 -1667 8345
-4154 11835 -1008 1415 -2204 2736 -3522 3890 -3231 2830 -7174 4672 -11403
5325 -892 138 -1780 220 -2756 255 -313 11 -1169 11 -1490 -1z m1585 -589
c2577 -102 5005 -614 7345 -1550 2506 -1002 4773 -2437 6795 -4300 270 -249
936 -915 1185 -1185 1167 -1266 2146 -2601 2982 -4065 1683 -2944 2660 -6256
2848 -9645 42 -757 42 -1756 0 -2495 -171 -3009 -944 -5919 -2284 -8598 -1072
-2142 -2526 -4142 -4238 -5827 -3820 -3763 -8818 -5989 -14143 -6300 -835 -49
-1784 -48 -2625 1 -3015 175 -6013 988 -8670 2351 -3553 1822 -6507 4518
-8636 7883 -1977 3123 -3130 6712 -3349 10415 -49 831 -49 1809 0 2640 216
3658 1338 7189 3273 10295 1940 3115 4620 5695 7802 7512 3067 1752 6475 2725
10040 2867 290 12 1388 12 1675 1z"/>
<path d="M29261 50619 c-257 -27 -572 -118 -861 -249 -460 -207 -884 -571
-1049 -898 -113 -224 -139 -471 -71 -674 83 -246 183 -346 786 -778 359 -258
467 -343 584 -461 175 -175 240 -318 240 -529 0 -118 -15 -192 -60 -287 -195
-419 -753 -656 -1357 -578 -258 34 -469 103 -752 247 -107 54 -202 98 -212 98
-50 0 -72 -25 -187 -219 -123 -207 -132 -233 -98 -286 35 -53 293 -151 511
-194 138 -27 340 -49 530 -57 428 -17 862 65 1178 223 342 171 642 471 797
796 209 438 139 865 -200 1221 -95 100 -227 206 -499 400 -522 373 -685 516
-759 666 -24 49 -27 66 -27 155 0 76 5 117 22 170 75 237 307 459 683 654 335
173 654 263 945 265 192 1 283 -23 350 -94 28 -29 30 -36 30 -108 0 -66 -5
-87 -32 -145 -100 -212 -317 -434 -635 -651 -70 -48 -134 -97 -143 -109 -8
-12 -15 -39 -15 -60 0 -53 25 -75 202 -181 170 -102 176 -103 274 -40 234 148
529 420 650 599 303 445 265 831 -99 1010 -187 92 -436 124 -726 94z"/>
<path d="M23105 48385 c-107 -28 -166 -138 -150 -278 18 -159 94 -569 109
-592 26 -39 61 -49 125 -36 63 12 99 33 111 65 13 36 62 489 63 591 2 146 -39
221 -136 250 -59 18 -57 18 -122 0z"/>
<path d="M32332 47820 c-99 -21 -205 -108 -259 -213 -55 -110 -77 -271 -52
-389 14 -64 60 -169 94 -214 14 -18 25 -38 25 -44 0 -6 -44 -57 -97 -112 -98
-101 -241 -222 -353 -298 -100 -68 -110 -114 -46 -214 39 -62 60 -76 109 -76
79 0 441 295 594 484 l31 39 79 -21 c43 -12 90 -22 105 -24 26 -3 15 -15 -129
-148 -301 -278 -501 -519 -603 -725 -75 -151 -93 -221 -88 -340 3 -73 9 -102
32 -152 89 -194 332 -272 592 -189 161 51 440 181 491 229 38 34 39 78 5 151
-52 112 -99 123 -233 56 -125 -63 -252 -110 -319 -117 -56 -5 -60 -5 -71 19
-15 34 6 105 65 220 144 278 442 667 808 1051 128 135 151 163 155 195 7 62
-23 97 -104 121 -160 47 -157 47 -225 24 -35 -12 -80 -24 -100 -27 -41 -5
-151 8 -191 23 l-25 10 34 88 c95 253 43 479 -129 562 -70 34 -132 44 -195 31z"/>
<path d="M24420 47764 c-113 -19 -154 -29 -218 -55 -236 -94 -426 -302 -487
-534 -19 -73 -22 -215 -5 -287 42 -178 142 -275 480 -468 302 -173 342 -210
348 -321 4 -59 0 -77 -22 -124 -55 -110 -168 -176 -306 -178 -129 -2 -227 48
-317 163 -81 103 -90 110 -138 110 -26 0 -51 -7 -64 -17 -12 -10 -60 -83 -106
-163 -116 -198 -114 -219 24 -323 250 -190 538 -213 826 -64 168 87 302 222
381 382 54 110 73 183 81 300 11 185 -41 319 -177 456 -102 102 -124 118 -350
244 -202 112 -249 145 -284 200 -32 48 -33 94 -5 152 54 113 207 171 343 131
59 -18 138 -99 160 -166 40 -120 133 -135 227 -35 67 69 84 115 84 223 0 81
-4 103 -26 150 -48 102 -122 165 -234 199 -63 20 -172 32 -215 25z"/>
<path d="M30655 47694 c-263 -58 -493 -190 -710 -408 -150 -151 -235 -266
-311 -421 -94 -195 -134 -354 -134 -542 0 -372 207 -649 556 -745 120 -32 324
-30 455 5 156 42 298 111 457 219 98 67 310 279 385 385 167 235 269 526 269
768 0 140 -20 232 -79 354 -38 79 -59 108 -131 181 -97 97 -191 152 -322 190
-101 30 -332 37 -435 14z m357 -309 c30 -22 53 -50 76 -96 45 -88 52 -176 23
-315 -97 -470 -439 -992 -723 -1105 -78 -31 -205 -24 -271 14 -25 15 -55 40
-67 56 -107 151 -63 464 115 817 125 249 268 441 406 546 128 97 186 119 311
115 78 -2 90 -5 130 -32z"/>
<path d="M34365 47681 c-21 -12 -105 -136 -269 -393 l-238 -375 -126 49 c-70
26 -135 48 -145 48 -39 0 -76 -32 -121 -103 -49 -79 -55 -110 -31 -156 15 -31
39 -44 158 -87 42 -16 77 -33 77 -37 0 -5 -137 -226 -304 -491 -395 -626 -433
-697 -454 -854 -36 -259 131 -481 391 -522 153 -24 361 37 626 184 46 25 85
46 86 46 1 0 5 -51 8 -112 9 -192 63 -314 197 -448 150 -149 338 -228 570
-237 202 -8 400 38 629 147 57 28 107 50 111 50 4 0 0 -24 -8 -52 -21 -77 -20
-276 2 -358 33 -123 92 -227 181 -316 133 -134 267 -205 460 -245 122 -25 307
-25 458 1 535 91 1015 465 1169 910 31 91 33 102 33 240 -1 130 -3 153 -28
225 -36 107 -87 192 -165 271 -313 317 -838 359 -1362 108 -282 -135 -506
-336 -643 -576 l-44 -77 -23 49 c-46 97 -99 116 -195 68 -139 -71 -342 -128
-447 -128 -293 2 -462 263 -351 543 l15 37 222 0 c121 0 262 5 311 10 361 41
654 161 813 334 176 193 188 422 31 590 -65 70 -137 113 -249 148 -100 31
-322 33 -445 4 -319 -74 -616 -238 -858 -475 -150 -147 -259 -303 -323 -465
l-27 -68 -12 30 c-17 39 -51 62 -93 62 -19 0 -83 -23 -152 -55 -141 -65 -158
-72 -229 -91 -68 -17 -132 -4 -162 35 -31 39 -23 128 20 215 36 74 706 1086
718 1086 5 0 108 -38 231 -85 123 -47 237 -85 253 -85 47 0 67 16 115 91 57
87 64 122 32 168 -20 30 -45 42 -228 112 -113 43 -209 80 -214 82 -5 1 113
186 263 410 149 224 274 421 278 437 3 17 0 44 -7 60 -23 55 -47 60 -272 60
-180 0 -206 -2 -233 -19z m1279 -1795 c47 -20 50 -30 26 -81 -34 -71 -105
-141 -217 -215 -171 -113 -373 -179 -598 -196 l-89 -7 21 29 c12 16 59 66 105
110 268 263 602 423 752 360z m1591 -893 c66 -22 140 -94 155 -153 15 -55 8
-156 -16 -224 -23 -65 -134 -230 -226 -336 -237 -271 -575 -501 -809 -551 -29
-6 -89 -9 -133 -7 -66 3 -92 10 -135 33 -187 102 -187 295 -1 570 165 244 517
532 777 636 145 59 279 70 388 32z"/>
<path d="M16508 47381 c-117 -38 -217 -117 -296 -235 -238 -356 -260 -1030
-72 -2158 17 -97 30 -180 30 -184 0 -5 -49 93 -109 217 -260 539 -480 887
-705 1113 -282 284 -569 368 -799 233 -63 -37 -151 -137 -186 -211 -60 -124
-76 -218 -75 -436 0 -156 4 -219 22 -318 55 -304 157 -617 305 -934 60 -129
57 -128 282 -128 189 0 228 8 259 51 30 44 20 79 -93 310 -224 459 -385 919
-407 1159 -12 141 30 250 97 250 88 0 203 -110 323 -309 303 -499 1246 -2647
1581 -3601 32 -91 68 -175 80 -188 13 -14 38 -26 61 -29 36 -5 48 1 164 82
151 104 190 143 190 186 0 17 -61 218 -135 447 -309 955 -467 1615 -599 2493
-118 784 -126 1278 -26 1542 25 67 91 142 133 152 65 17 125 -41 200 -190 24
-49 376 -875 782 -1835 406 -960 744 -1753 753 -1762 23 -27 74 -40 106 -28
48 18 323 221 335 246 6 14 11 35 11 48 0 27 -1425 3399 -1509 3571 -132 268
-249 393 -419 445 -82 26 -205 26 -284 1z"/>
<path d="M18313 47190 c-239 -95 -271 -416 -55 -546 166 -100 366 -39 446 135
29 64 29 178 -1 243 -27 59 -95 134 -148 160 -59 31 -174 35 -242 8z"/>
<path d="M22093 47199 c-438 -44 -829 -471 -952 -1040 -58 -269 -48 -531 29
-753 11 -33 20 -63 20 -67 0 -4 -21 -2 -47 5 -54 14 -101 6 -125 -21 -8 -10
-34 -76 -56 -148 -102 -322 -229 -478 -419 -514 -147 -28 -305 83 -403 284
-80 165 -118 324 -127 535 -13 310 57 588 181 716 81 84 143 85 183 4 55 -110
49 -211 -19 -305 -83 -116 -32 -205 117 -205 252 0 411 392 271 667 -65 129
-192 213 -334 221 -97 5 -169 -9 -262 -54 -281 -134 -498 -508 -566 -974 -24
-170 -15 -465 19 -610 29 -122 63 -217 111 -307 35 -65 35 -65 10 -59 -27 7
-82 -13 -101 -36 -7 -8 -27 -62 -44 -119 -32 -110 -87 -230 -108 -237 -20 -7
-79 65 -115 141 -53 110 -85 230 -241 917 -140 615 -146 636 -175 663 -39 35
-98 37 -134 5 -49 -46 -263 -316 -270 -342 -5 -20 49 -203 205 -694 117 -367
229 -708 249 -759 49 -124 93 -194 166 -267 193 -195 446 -176 562 41 35 66
87 232 126 405 l27 116 66 -49 c133 -101 269 -149 423 -149 249 0 512 151 666
382 84 125 164 326 210 521 10 42 21 77 24 77 4 0 24 -25 45 -55 20 -30 66
-82 101 -114 231 -216 546 -257 849 -111 433 209 747 846 695 1411 -29 316
-142 569 -319 716 -153 126 -340 183 -538 162z m94 -355 c73 -51 125 -126 162
-239 58 -177 81 -346 81 -590 -1 -426 -110 -743 -288 -834 -178 -91 -326 -15
-422 216 -99 238 -126 677 -61 988 68 320 226 512 413 502 48 -3 68 -10 115
-43z"/>
<path d="M26765 44929 c-2255 -90 -4443 -655 -6445 -1665 -2261 -1140 -4221
-2813 -5711 -4874 -2209 -3055 -3241 -6767 -2929 -10535 259 -3114 1438 -6061
3411 -8520 382 -477 681 -809 1153 -1281 463 -462 796 -764 1256 -1134 187
-150 566 -441 599 -460 13 -7 -52 -77 -324 -352 -382 -386 -745 -761 -1100
-1138 -359 -381 -368 -390 -361 -358 85 384 78 836 -20 1223 -108 431 -338
858 -621 1155 -73 77 -60 85 -157 -100 -142 -275 -234 -555 -281 -860 -26
-162 -31 -513 -11 -685 41 -352 155 -712 315 -995 22 -39 35 -68 28 -64 -6 4
-111 87 -232 185 -272 219 -548 454 -801 684 l-193 175 43 68 c607 943 571
2152 -91 3055 -36 48 -66 87 -68 87 -2 0 -44 -61 -94 -135 -239 -359 -387
-760 -442 -1200 -21 -162 -16 -493 10 -665 40 -263 109 -504 212 -733 l50
-112 -101 100 c-115 113 -479 497 -621 655 -204 225 -559 641 -559 654 0 4 31
51 69 104 237 335 403 748 467 1162 24 161 30 505 10 674 -41 357 -153 712
-314 1003 -70 124 -106 183 -114 183 -9 0 -93 -95 -158 -180 -281 -368 -461
-797 -530 -1261 -42 -284 -23 -691 44 -974 17 -72 35 -92 -178 205 -184 257
-362 520 -518 764 l-114 179 171 171 c230 230 368 416 505 681 119 233 206
493 257 775 25 135 27 165 27 440 1 263 -2 309 -22 425 -42 240 -132 552 -155
538 -53 -30 -242 -189 -337 -283 -335 -331 -558 -701 -694 -1151 -78 -258
-109 -499 -104 -801 l3 -208 -67 67 c-56 55 -87 102 -187 277 -224 395 -425
777 -602 1147 l-120 251 23 16 c158 111 430 377 554 542 491 654 663 1458 479
2246 -25 108 -92 324 -104 337 -5 4 -48 -23 -97 -61 -607 -470 -974 -1136
-1045 -1896 -22 -242 -2 -562 52 -810 10 -49 17 -91 15 -93 -11 -11 -314 727
-458 1117 -93 249 -308 886 -308 910 0 9 19 25 45 38 179 87 428 274 620 467
213 213 350 398 480 647 273 525 360 1076 269 1700 l-7 47 -36 -15 c-20 -8
-85 -42 -146 -76 -804 -448 -1315 -1251 -1381 -2173 l-7 -100 -63 235 c-77
283 -165 651 -233 970 -62 294 -143 729 -139 753 2 13 32 29 108 58 843 317
1459 1018 1669 1899 47 194 62 317 68 548 l6 213 -119 -41 c-251 -87 -581
-271 -790 -440 -113 -92 -283 -259 -376 -370 -321 -381 -544 -903 -603 -1408
-8 -69 -16 -127 -18 -129 -5 -4 -59 386 -87 622 -57 492 -101 1050 -116 1492
l-7 202 29 6 c531 122 945 339 1313 690 437 416 728 990 806 1588 21 165 21
179 -7 172 -13 -3 -63 -14 -113 -25 -519 -118 -1020 -412 -1378 -806 -298
-329 -499 -705 -618 -1159 l-40 -150 5 470 c5 468 13 681 41 1080 22 306 57
677 66 703 7 18 16 22 56 22 27 0 95 7 153 14 1071 144 1939 898 2233 1941 19
66 37 135 40 153 l7 32 -43 0 c-23 0 -98 -7 -166 -15 -599 -74 -1140 -336
-1562 -755 -307 -305 -513 -632 -656 -1040 -18 -52 -33 -85 -33 -72 0 41 70
535 116 812 66 406 264 1369 288 1409 3 4 44 3 93 -2 132 -13 466 -2 618 22
347 53 706 183 1005 365 392 239 756 629 968 1036 63 120 128 268 121 274 -12
13 -312 28 -436 22 -704 -31 -1318 -298 -1803 -785 -186 -186 -331 -376 -445
-583 -27 -48 -50 -86 -52 -84 -5 5 104 404 188 686 124 414 325 1005 469 1379
l33 83 36 -6 c379 -67 696 -72 1016 -15 686 123 1275 487 1690 1044 78 105
177 261 223 352 26 50 35 45 -130 73 -398 69 -839 40 -1233 -81 -616 -190
-1164 -615 -1494 -1158 -64 -105 -68 -109 -41 -41 550 1398 1363 2872 2289
4151 94 130 84 123 221 163 890 263 1571 950 1825 1840 47 165 95 450 95 562
0 39 -3 45 -17 40 -10 -3 -63 -16 -118 -30 -336 -84 -672 -245 -958 -458 -148
-111 -411 -372 -516 -511 -255 -342 -416 -702 -500 -1122 l-28 -140 -124 -170
c-251 -342 -536 -761 -754 -1108 -55 -87 -101 -154 -103 -148 -2 5 2 43 8 83
18 122 24 432 11 573 -33 348 -115 640 -267 951 -175 359 -440 685 -762 937
l-61 48 -16 -38 c-31 -75 -77 -221 -106 -338 -153 -626 -74 -1290 221 -1862
138 -267 266 -439 502 -676 98 -99 178 -180 178 -182 0 -1 -25 -47 -56 -101
-196 -345 -487 -902 -650 -1245 l-69 -146 -1 201 c-1 216 -16 357 -60 556
-112 505 -379 981 -750 1340 -91 88 -271 240 -284 240 -15 0 -107 -290 -139
-435 -44 -201 -55 -319 -55 -580 1 -267 10 -359 59 -583 86 -388 298 -818 553
-1122 44 -53 140 -154 215 -226 l135 -130 -118 -295 c-144 -362 -233 -604
-366 -999 -85 -253 -103 -297 -104 -260 0 70 -28 283 -51 389 -145 685 -540
1271 -1122 1669 -66 45 -124 79 -128 75 -4 -5 -21 -64 -38 -133 -105 -437
-102 -870 9 -1306 51 -199 94 -314 195 -519 189 -386 455 -706 795 -959 52
-38 97 -71 99 -73 2 -1 -37 -168 -87 -370 -117 -474 -213 -924 -285 -1333
l-13 -75 -18 90 c-10 50 -34 142 -53 205 -235 779 -778 1386 -1527 1707 -43
18 -80 32 -82 30 -12 -12 -25 -293 -20 -417 27 -590 232 -1140 592 -1590 89
-111 286 -308 394 -394 127 -102 319 -226 465 -302 72 -37 132 -69 134 -70 2
-2 -8 -101 -23 -221 -59 -497 -101 -1014 -122 -1512 l-7 -165 -37 105 c-55
155 -75 200 -145 338 -273 537 -729 971 -1280 1219 -121 54 -378 144 -447 157
l-38 7 0 -79 c0 -306 110 -736 274 -1068 135 -273 275 -472 480 -684 302 -310
673 -542 1087 -680 l96 -32 7 -307 c10 -465 36 -931 76 -1355 11 -114 20 -211
20 -215 0 -4 -23 35 -50 85 -178 332 -428 638 -690 848 -352 281 -784 478
-1219 555 -133 23 -171 25 -171 8 0 -7 14 -80 30 -161 106 -523 376 -1017 756
-1388 136 -132 233 -210 388 -313 303 -202 636 -335 1032 -412 19 -3 23 -15
33 -86 69 -483 212 -1205 342 -1731 27 -109 49 -201 49 -205 0 -4 -24 34 -53
83 -273 465 -649 820 -1117 1054 -359 179 -699 266 -1127 287 l-142 7 25 -84
c135 -445 414 -888 756 -1198 469 -425 1037 -659 1697 -699 l115 -7 19 -65
c107 -373 304 -963 457 -1365 48 -126 91 -239 95 -250 4 -11 -35 23 -87 75
-194 196 -352 321 -562 446 -338 202 -703 323 -1105 365 -203 21 -667 -1 -784
-37 -15 -5 -11 -18 34 -105 277 -539 793 -1003 1369 -1232 431 -171 876 -228
1351 -171 l55 6 43 -98 c177 -403 511 -1077 734 -1479 l132 -240 -130 131
c-416 419 -929 679 -1515 769 -142 22 -485 31 -632 16 -120 -12 -276 -36 -285
-44 -14 -15 158 -307 266 -451 431 -573 1043 -936 1766 -1048 203 -31 559 -31
765 1 79 12 146 24 148 26 2 1 -6 23 -18 47 -41 80 -3 24 103 -155 58 -98 111
-193 117 -212 6 -19 17 -35 23 -35 7 0 32 -33 57 -72 179 -290 564 -849 832
-1206 l169 -225 -133 135 c-426 432 -926 686 -1543 785 -157 25 -583 25 -745
0 -138 -22 -294 -56 -410 -92 -123 -37 -300 -106 -300 -117 0 -19 129 -164
246 -278 398 -385 903 -634 1471 -726 153 -24 509 -30 677 -10 249 29 506 93
716 179 90 36 86 33 70 52 -7 8 -10 15 -7 15 9 0 186 -231 220 -287 17 -29 36
-52 41 -50 6 2 59 -55 120 -127 160 -192 424 -490 577 -655 74 -79 150 -162
169 -185 30 -35 31 -39 10 -25 -14 9 -67 39 -117 67 -694 386 -1538 439 -2283
145 -123 -49 -305 -136 -314 -152 -3 -5 35 -48 85 -96 714 -679 1715 -916
2658 -629 106 33 272 99 368 148 40 20 77 36 83 36 6 0 93 -78 193 -172 296
-280 664 -606 952 -843 150 -123 152 -124 85 -87 -223 124 -571 237 -871 283
-172 26 -529 32 -694 10 -406 -52 -807 -195 -1123 -401 -82 -53 -92 -63 -81
-76 23 -28 242 -188 339 -249 116 -71 360 -190 493 -239 127 -47 331 -100 479
-126 623 -106 1281 21 1832 354 60 36 114 66 119 66 5 0 28 -14 51 -32 22 -17
43 -33 44 -34 2 -1 -67 -85 -155 -186 -469 -543 -725 -904 -740 -1042 -4 -35
2 -52 46 -124 113 -188 257 -325 466 -446 181 -104 334 -154 790 -256 791
-177 1234 -309 1626 -485 604 -271 987 -629 1129 -1053 49 -148 63 -246 64
-464 l1 -196 300 302 c300 302 454 446 551 515 28 20 87 67 130 104 263 229
737 547 1209 811 184 103 687 352 909 450 1315 580 2803 963 4441 1145 562 63
622 66 1155 66 517 -1 641 -7 1020 -56 1897 -242 3758 -1156 5400 -2654 342
-312 794 -783 982 -1025 l28 -35 315 315 315 315 0 81 c0 196 39 440 100 626
163 495 529 821 1141 1016 237 76 563 145 1004 211 717 109 870 136 1125 197
363 87 640 199 867 351 80 54 81 55 72 86 -45 158 -370 611 -872 1211 l-116
139 92 70 c51 38 97 71 104 74 6 2 46 -18 90 -45 554 -346 1226 -480 1863
-371 367 62 739 210 1043 413 123 82 277 201 277 214 0 12 -167 113 -295 179
-285 147 -590 241 -920 284 -164 22 -521 17 -694 -10 -170 -26 -365 -74 -516
-129 -119 -43 -300 -122 -352 -154 -18 -11 -33 -18 -33 -15 0 2 62 55 138 118
299 248 612 527 932 830 l186 176 59 -30 c312 -159 672 -254 1043 -276 743
-44 1471 226 2015 748 48 46 87 87 87 91 0 11 -262 133 -374 175 -327 121
-641 172 -1010 162 -261 -7 -447 -35 -681 -103 -192 -57 -448 -169 -618 -272
-37 -22 -67 -39 -67 -36 0 3 44 51 98 107 191 202 458 501 684 768 63 74 119
134 124 132 5 -2 24 22 42 52 30 50 187 255 215 280 6 6 5 2 -2 -8 -8 -9 -12
-19 -10 -21 2 -2 36 -16 74 -31 251 -100 491 -158 764 -186 144 -15 499 -6
634 16 494 78 947 280 1319 588 158 130 421 408 399 421 -32 20 -258 100 -367
130 -269 74 -507 102 -797 93 -279 -8 -503 -47 -749 -128 -420 -139 -774 -361
-1092 -683 l-119 -121 73 95 c372 482 844 1160 1105 1590 49 80 92 149 95 153
4 4 72 -2 151 -14 191 -30 551 -32 734 -6 609 89 1121 342 1541 762 147 147
233 251 339 410 78 117 191 323 182 331 -9 9 -162 33 -285 45 -147 15 -489 6
-632 -16 -643 -97 -1219 -416 -1653 -915 l-57 -65 101 179 c268 480 551 1038
763 1507 l98 216 51 -9 c29 -4 123 -13 210 -19 400 -28 838 49 1227 216 547
234 1025 680 1309 1220 32 60 38 81 28 86 -7 4 -64 16 -127 26 -164 26 -625
26 -789 0 -350 -56 -678 -173 -972 -347 -189 -112 -347 -236 -527 -416 -90
-89 -161 -155 -157 -146 189 479 407 1108 540 1558 l48 161 135 7 c384 18 736
110 1082 282 532 265 942 679 1206 1218 46 95 105 238 133 321 l51 150 -32 3
c-56 6 -338 -17 -468 -38 -540 -89 -1059 -352 -1446 -735 -179 -178 -321 -364
-453 -594 -39 -69 -71 -122 -71 -118 0 3 29 122 64 264 119 477 218 964 301
1470 25 153 48 292 50 310 5 28 11 33 43 38 75 13 289 66 367 92 302 98 612
263 850 453 116 92 315 290 408 405 226 280 410 636 503 975 29 103 74 320 74
352 0 13 -48 10 -166 -12 -840 -151 -1541 -672 -1926 -1430 -32 -63 -56 -101
-53 -85 8 50 44 448 60 675 26 365 35 563 42 901 l6 326 71 23 c236 74 482
192 688 329 618 411 1035 1061 1158 1801 26 156 39 390 21 390 -22 0 -188 -49
-283 -84 -367 -134 -676 -328 -957 -601 -306 -298 -517 -629 -662 -1035 l-37
-105 -5 75 c-4 41 -11 188 -17 325 -11 265 -30 540 -56 820 -16 180 -60 586
-69 645 l-6 35 105 52 c796 396 1345 1165 1461 2048 22 170 29 399 17 544 -6
68 -13 125 -15 128 -7 6 -165 -64 -287 -128 -235 -123 -459 -288 -650 -479
-351 -350 -602 -800 -711 -1277 -13 -57 -26 -103 -29 -103 -3 0 -14 48 -24
108 -59 353 -209 1053 -311 1450 -25 96 -45 175 -45 176 0 2 53 43 118 92 206
156 440 405 592 629 374 554 529 1253 425 1915 -18 112 -74 348 -84 354 -9 6
-197 -121 -303 -204 -107 -84 -325 -301 -412 -410 -228 -286 -409 -644 -500
-990 -32 -122 -65 -307 -82 -455 l-6 -60 -117 345 c-134 392 -209 597 -352
957 l-101 252 73 68 c268 250 450 493 605 808 175 356 259 694 271 1095 10
354 -36 653 -153 988 -20 56 -39 102 -43 102 -18 0 -202 -159 -317 -274 -494
-496 -771 -1151 -777 -1841 l-2 -170 -191 380 c-189 379 -273 535 -471 883
-57 101 -103 188 -101 192 2 5 44 46 94 92 251 228 443 486 594 793 90 182
137 304 185 480 110 401 122 845 36 1259 -38 179 -124 446 -145 446 -21 -1
-192 -145 -311 -265 -410 -409 -669 -924 -756 -1499 -29 -190 -35 -474 -15
-660 9 -82 15 -151 13 -152 -1 -1 -54 77 -117 174 -229 354 -422 631 -692 994
l-169 226 -14 90 c-171 1054 -951 1904 -1990 2167 -154 39 -143 50 -126 -120
44 -424 197 -847 436 -1205 113 -169 198 -273 335 -410 318 -318 705 -547
1143 -677 124 -37 129 -39 144 -73 8 -19 16 -41 17 -47 1 -7 29 -43 61 -79 65
-74 170 -216 340 -459 983 -1408 1775 -2985 2325 -4633 144 -430 292 -929 375
-1262 14 -58 28 -114 31 -125 3 -11 -24 33 -60 97 -206 371 -466 665 -799 906
-494 357 -1155 543 -1757 492 -80 -6 -147 -13 -149 -16 -12 -12 102 -248 195
-405 138 -232 367 -500 584 -681 367 -308 847 -520 1342 -594 133 -19 476 -29
598 -16 52 6 96 9 98 8 6 -6 115 -506 161 -736 98 -500 167 -935 236 -1500 4
-32 -6 -9 -38 80 -144 413 -376 777 -683 1070 -416 398 -957 653 -1535 725
-169 21 -212 20 -205 -2 2 -10 16 -64 30 -120 65 -256 205 -573 353 -798 309
-469 747 -825 1267 -1029 214 -85 524 -158 730 -172 53 -4 100 -12 105 -18 13
-17 59 -579 81 -991 14 -257 27 -1002 20 -1125 l-5 -95 -13 65 c-27 131 -122
393 -200 554 -88 181 -158 298 -259 433 -403 541 -969 895 -1660 1039 -29 6
-29 -10 -7 -168 45 -328 126 -587 276 -881 346 -682 970 -1179 1728 -1373 74
-19 135 -36 135 -37 3 -7 -17 -420 -30 -627 -28 -443 -71 -879 -136 -1365 -31
-239 -47 -315 -48 -241 -2 93 -48 331 -98 501 -58 203 -179 473 -293 656 -137
219 -357 471 -560 641 -217 183 -562 378 -824 468 l-119 40 6 -207 c3 -115 13
-253 21 -308 117 -785 537 -1447 1191 -1878 137 -90 385 -216 528 -267 53 -19
97 -41 97 -47 0 -7 -20 -124 -46 -260 -83 -453 -197 -961 -316 -1413 l-63
-235 -7 55 c-4 30 -14 109 -23 175 -77 581 -341 1113 -759 1530 -143 142 -246
227 -416 340 -116 77 -357 212 -364 204 -13 -15 -39 -267 -43 -420 -16 -529
112 -1019 384 -1471 228 -381 574 -719 961 -938 50 -29 92 -57 92 -62 0 -18
-198 -604 -280 -827 -150 -410 -446 -1139 -457 -1127 -3 2 1 30 7 61 29 142
41 255 47 441 9 296 -15 506 -88 783 -149 565 -506 1092 -979 1446 l-74 55
-13 -23 c-17 -34 -80 -246 -103 -348 -150 -670 -39 -1370 308 -1957 40 -67
114 -178 164 -245 105 -140 358 -398 490 -500 l86 -67 -72 -153 c-170 -355
-399 -797 -574 -1107 -84 -150 -315 -540 -318 -537 -2 1 1 69 6 151 49 889
-349 1746 -1060 2283 l-84 64 -19 -48 c-29 -73 -82 -266 -106 -380 -68 -329
-68 -739 -1 -1068 69 -339 208 -673 401 -960 115 -172 226 -301 393 -462 l138
-132 -176 -265 c-260 -391 -677 -970 -662 -921 60 205 93 555 76 808 -21 320
-84 593 -204 880 -107 259 -275 529 -449 724 l-56 62 -56 -94 c-182 -305 -304
-650 -362 -1022 -24 -151 -24 -583 0 -736 66 -428 207 -789 444 -1141 52 -76
92 -144 89 -150 -7 -17 -250 -300 -450 -526 -215 -241 -417 -458 -654 -700
l-171 -175 51 115 c103 235 179 501 215 760 23 170 23 508 -1 679 -59 429
-205 813 -449 1174 l-80 119 -24 -29 c-65 -78 -208 -305 -275 -438 -316 -626
-379 -1307 -182 -1977 71 -243 203 -528 334 -718 l31 -45 -78 -74 c-235 -221
-652 -581 -992 -854 l-173 -140 55 104 c139 260 236 547 288 849 27 159 37
513 20 686 -32 316 -125 635 -271 929 -49 99 -97 189 -106 200 -15 19 -18 18
-85 -54 -279 -296 -506 -724 -618 -1167 -54 -212 -65 -322 -66 -624 0 -228 4
-308 18 -398 18 -110 61 -298 91 -396 8 -27 11 -45 7 -40 -5 5 -111 126 -237
269 -412 468 -1054 1177 -1482 1638 l-185 198 24 17 c137 94 610 467 837 660
647 548 1314 1214 1851 1847 2664 3147 3988 7139 3731 11250 -68 1081 -259
2188 -561 3250 -858 3016 -2644 5750 -5084 7785 -2870 2393 -6437 3684 -10135
3668 -201 0 -455 -5 -565 -9z m1270 -1200 c599 -27 1185 -90 1804 -195 328
-55 864 -164 878 -178 3 -3 -127 -502 -289 -1108 l-295 -1103 -39 3 c-21 2
-340 37 -709 77 -1169 130 -1318 140 -2000 140 -671 0 -846 -12 -1970 -135
-696 -76 -775 -83 -781 -77 -5 5 -579 2122 -591 2178 l-5 26 191 41 c1289 283
2517 390 3806 331z m10144 -4784 c1183 -1301 2100 -2774 2748 -4414 162 -410
411 -1137 395 -1152 -7 -7 -2242 -609 -2258 -609 -5 0 -31 69 -58 153 -509
1595 -1389 3124 -2541 4415 l-128 144 829 829 828 828 24 -22 c14 -12 86 -89
161 -172z m-20678 -612 c419 -434 787 -814 817 -845 l55 -57 -39 -45 c-368
-422 -534 -623 -755 -921 -709 -953 -1277 -2017 -1692 -3165 -47 -129 -106
-301 -132 -382 -26 -82 -48 -148 -50 -148 -7 0 -2260 602 -2263 605 -5 5 63
256 113 420 264 847 802 1988 1416 3001 437 721 921 1396 1363 1898 89 102
395 426 401 426 2 0 347 -354 766 -787z m7449 -518 c401 -60 743 -294 1052
-720 119 -164 181 -308 218 -507 7 -38 17 -68 24 -68 6 0 61 7 121 15 126 17
377 19 480 5 39 -6 210 -44 380 -85 395 -94 360 -87 679 -146 264 -50 275 -51
446 -50 96 0 290 6 430 12 l255 12 165 79 c390 187 597 256 905 302 473 71
1035 29 1465 -110 314 -101 588 -239 1000 -503 384 -245 811 -511 1210 -752
l405 -245 355 -133 c676 -254 873 -341 1045 -465 262 -190 454 -459 524 -737
31 -123 35 -245 17 -499 -38 -526 -79 -776 -235 -1445 -64 -275 -263 -1193
-309 -1430 -11 -55 -23 -153 -27 -217 -8 -143 -6 -147 121 -281 205 -216 290
-407 301 -683 20 -464 -210 -853 -597 -1010 -47 -19 -85 -45 -137 -94 -268
-255 -574 -357 -986 -330 -631 42 -1202 247 -1659 597 l-57 43 -16 -57 c-8
-32 -36 -122 -61 -201 l-45 -142 94 -113 c222 -267 296 -383 685 -1083 235
-423 248 -448 278 -538 92 -270 67 -575 -69 -831 l-44 -82 -6 -274 c-7 -311
-24 -463 -87 -781 -200 -991 -551 -1753 -1032 -2238 -109 -111 -177 -164 -281
-223 -53 -30 -90 -61 -127 -106 -172 -207 -510 -371 -764 -371 -43 0 -60 -6
-106 -37 -30 -21 -100 -60 -154 -88 l-99 -50 -34 -84 c-18 -46 -74 -176 -124
-290 -50 -113 -106 -245 -124 -292 -60 -157 -135 -291 -223 -400 -32 -41 -55
-86 -83 -162 -142 -400 -412 -660 -776 -748 -118 -29 -309 -31 -445 -5 l-97
19 -61 -26 c-111 -49 -214 -69 -366 -75 -84 -2 -168 0 -206 7 -60 10 -69 9
-119 -13 -102 -44 -364 -124 -448 -137 -259 -37 -539 33 -941 236 l-115 58
-165 2 c-128 1 -188 6 -266 23 -486 105 -1012 430 -1519 937 -248 248 -428
498 -638 886 -13 24 -21 26 -98 32 -107 9 -231 39 -313 76 -63 29 -172 96
-212 133 -16 14 -47 22 -118 29 -260 26 -536 167 -682 347 -29 36 -67 68 -103
87 -203 110 -422 328 -614 611 -105 156 -174 281 -278 509 -257 562 -344 816
-433 1265 -74 375 -98 601 -101 965 l-3 290 -32 78 c-55 138 -72 219 -77 380
-6 172 -4 189 78 493 121 453 137 484 498 958 158 208 188 253 181 271 -4 11
-65 165 -135 340 -153 385 -185 476 -224 648 -47 206 -111 663 -111 790 l0 34
-82 12 c-94 14 -201 46 -338 101 -56 22 -130 43 -180 50 -159 22 -312 81 -453
173 -189 123 -324 288 -388 475 -10 29 -37 74 -60 100 -61 70 -80 107 -189
370 -396 962 -643 1799 -794 2692 -108 637 -117 1140 -30 1705 35 224 142 569
210 676 116 181 144 218 221 299 132 140 271 233 470 316 99 41 238 88 293 98
14 2 84 15 155 29 152 30 352 59 555 82 222 24 272 32 450 76 201 49 483 142
622 205 57 26 152 69 212 96 215 96 1032 400 1401 521 462 151 891 256 1235
302 69 9 132 18 140 20 43 9 237 3 320 -10z m15241 -12516 c618 -165 1127
-304 1131 -307 9 -9 -208 -660 -311 -935 -301 -800 -684 -1596 -1111 -2312
-505 -847 -1132 -1686 -1790 -2396 l-108 -117 -833 827 -833 827 155 174
c1137 1283 1959 2708 2490 4318 41 122 77 222 80 222 4 0 512 -135 1130 -301z
m-24427 21 c62 -140 177 -401 256 -580 629 -1434 891 -1883 1905 -3265 430
-587 457 -624 453 -633 -4 -10 -1615 -1602 -1621 -1602 -3 0 -74 75 -158 167
-1276 1401 -2213 2944 -2881 4743 -89 240 -278 803 -278 828 0 14 197 70 1083
309 595 160 1092 291 1105 290 21 -2 38 -33 136 -257z m5458 -7319 c335 -86
575 -409 692 -934 80 -356 73 -810 -19 -1219 -102 -453 -287 -865 -542 -1207
-108 -144 -327 -364 -453 -454 -222 -157 -577 -291 -658 -248 -12 7 -22 9 -22
5 0 -4 43 -297 95 -652 91 -615 94 -645 79 -677 -8 -19 -30 -40 -47 -48 -87
-41 -331 -127 -360 -127 -45 0 -84 32 -97 78 -6 20 -80 512 -165 1092 -86 580
-169 1134 -186 1230 -113 651 -297 1341 -483 1812 -25 64 -46 131 -46 149 0
29 20 53 177 210 117 118 186 180 204 184 37 8 90 -18 112 -55 25 -42 183
-525 253 -772 33 -115 62 -208 65 -208 3 0 11 30 18 68 36 203 139 555 223
766 193 487 461 838 732 962 138 63 294 79 428 45z m9135 -181 c116 -50 179
-160 171 -299 -7 -129 -78 -226 -198 -272 -109 -41 -218 -18 -309 67 -119 110
-142 267 -58 391 89 130 248 176 394 113z m12243 -483 c0 -2 -10 -12 -22 -23
l-23 -19 19 23 c18 21 26 27 26 19z m-30345 -27 c10 -11 16 -20 13 -20 -3 0
-13 9 -23 20 -10 11 -16 20 -13 20 3 0 13 -9 23 -20z m12903 -56 c48 -31 48
-32 14 -557 -17 -270 -30 -492 -29 -494 2 -1 103 14 226 34 213 34 225 35 258
19 51 -24 66 -70 58 -170 -7 -84 -21 -118 -55 -136 -12 -6 -129 -29 -261 -50
-133 -21 -242 -40 -245 -42 -7 -7 -76 -1083 -77 -1213 -2 -148 11 -210 53
-255 21 -23 37 -30 65 -30 81 0 137 49 275 246 50 70 92 120 112 130 35 18 82
13 110 -13 26 -24 30 -13 16 48 -20 85 -17 356 5 459 73 339 236 633 479 865
147 140 293 229 465 282 79 24 103 27 243 27 142 0 162 -2 235 -27 209 -69
374 -228 454 -436 44 -113 61 -222 61 -385 0 -172 -18 -289 -71 -451 -145
-451 -480 -824 -851 -951 -229 -78 -492 -52 -672 66 -88 58 -201 178 -245 260
l-33 62 -21 -33 c-104 -173 -200 -303 -286 -389 -134 -133 -235 -180 -387
-180 -247 0 -427 181 -464 465 -14 104 -13 179 12 797 12 312 20 569 17 572
-3 3 -45 -1 -94 -9 -129 -21 -149 -20 -187 14 l-33 29 1 96 c1 152 14 165 204
195 67 11 124 22 126 24 2 2 13 203 24 448 18 391 23 447 39 469 17 24 208
146 329 211 59 31 85 32 130 3z m3741 -779 c180 -57 291 -194 291 -360 0 -115
-48 -214 -133 -276 -111 -80 -196 -54 -218 69 -29 151 -127 233 -279 232 -137
-1 -240 -86 -240 -196 0 -45 5 -59 43 -108 24 -32 119 -119 224 -205 108 -90
206 -179 242 -223 114 -137 169 -291 157 -435 -18 -197 -99 -358 -253 -504
-269 -252 -672 -311 -963 -142 -70 41 -214 176 -249 233 -43 71 -36 86 119
268 97 115 130 138 182 128 43 -8 55 -21 104 -116 52 -101 139 -189 217 -218
84 -32 213 -31 283 2 108 50 174 140 174 238 0 102 -28 135 -330 390 -288 242
-360 363 -347 578 9 157 78 302 201 425 162 161 356 243 583 244 93 1 125 -3
192 -24z m1229 -10 c17 -14 33 -39 37 -54 5 -22 -43 -179 -196 -648 -211 -647
-256 -801 -266 -919 -7 -86 3 -163 23 -171 22 -8 117 54 202 133 86 79 109 94
147 94 53 0 138 -69 154 -126 15 -55 -4 -84 -151 -232 -254 -255 -334 -307
-468 -307 -92 1 -152 28 -221 102 -111 119 -150 290 -114 511 19 118 331 1439
347 1470 16 31 23 34 227 108 198 71 235 76 279 39z m1105 -76 c36 -18 57 -52
57 -91 0 -22 -37 -134 -95 -287 -52 -138 -95 -252 -95 -254 0 -1 55 51 123
118 191 188 348 296 511 352 72 25 96 28 206 28 121 0 128 -1 191 -32 80 -40
150 -111 187 -191 20 -44 27 -77 30 -147 6 -136 4 -143 -263 -825 -69 -178
-135 -362 -147 -409 -20 -86 -21 -182 -2 -201 16 -16 101 31 218 118 119 90
158 102 208 63 l25 -20 16 92 c33 187 115 380 228 542 86 121 300 334 414 411
161 110 349 193 516 230 97 21 291 22 385 1 188 -42 344 -135 446 -267 53 -67
93 -145 124 -240 24 -75 27 -101 28 -220 1 -117 -3 -150 -27 -243 -64 -246
-171 -446 -342 -637 -229 -256 -538 -440 -832 -496 -106 -20 -305 -14 -398 11
-89 24 -233 97 -293 149 -118 102 -199 229 -240 380 l-18 69 -90 -80 c-238
-214 -348 -282 -464 -291 -90 -6 -154 16 -220 75 -62 55 -92 105 -120 201 -19
64 -22 89 -17 190 6 143 10 157 188 712 141 436 195 630 185 656 -7 19 -75 18
-128 -3 -195 -76 -511 -395 -753 -758 -106 -160 -195 -321 -331 -600 -74 -151
-101 -198 -122 -209 -31 -16 -243 -56 -298 -56 -45 0 -104 53 -104 94 0 42
626 1927 647 1947 18 19 376 127 421 128 13 1 33 -4 45 -10z m-7538 -524 c231
-48 449 -245 535 -484 160 -441 66 -1005 -236 -1408 -227 -303 -490 -454 -794
-454 -53 0 -117 5 -143 10 -247 56 -450 237 -551 492 -65 166 -94 384 -76 568
60 619 451 1158 917 1265 37 9 77 17 88 20 48 9 196 4 260 -9z m12060 -472
c39 -8 107 -33 153 -54 279 -133 353 -428 156 -626 -41 -41 -64 -55 -120 -73
-83 -25 -120 -21 -160 21 -28 30 -29 33 -26 119 4 119 -8 160 -66 219 -112
115 -304 120 -396 11 -21 -26 -26 -41 -26 -88 1 -75 17 -109 150 -312 183
-279 234 -404 234 -575 0 -112 -37 -227 -108 -333 -109 -164 -272 -274 -494
-334 -110 -29 -305 -29 -417 1 -247 66 -421 220 -515 454 -35 87 -37 111 -12
150 19 31 295 206 327 208 85 5 117 -29 131 -140 14 -115 73 -235 140 -286 19
-14 60 -38 92 -53 49 -23 70 -27 147 -27 78 0 97 4 140 27 90 47 145 128 145
212 0 46 -52 148 -183 357 -123 198 -169 284 -198 367 -62 181 -5 385 151 543
192 194 472 273 755 212z"/>
<path d="M24470 37075 c-377 -61 -760 -167 -1275 -352 -341 -123 -957 -363
-1200 -468 -547 -235 -726 -282 -1425 -375 -365 -49 -469 -69 -616 -119 -214
-72 -350 -174 -417 -313 -178 -370 -244 -919 -182 -1514 90 -867 395 -1986
807 -2963 67 -157 112 -220 174 -243 37 -13 40 -19 69 -155 19 -96 39 -141 78
-181 66 -69 157 -94 265 -73 l58 11 77 -44 c43 -24 121 -59 175 -77 93 -32
103 -34 247 -34 l150 0 170 58 c94 31 185 66 204 78 18 11 35 19 37 17 3 -3
20 -155 31 -278 3 -36 0 -126 -6 -201 -10 -112 -9 -167 4 -324 34 -419 83
-716 151 -928 45 -138 293 -760 381 -955 l64 -143 -23 -32 c-104 -138 -544
-717 -590 -776 -99 -124 -128 -197 -218 -538 -27 -106 -50 -214 -50 -241 0
-78 27 -140 87 -200 62 -62 62 -66 38 -267 -45 -370 4 -838 147 -1400 79 -314
174 -572 309 -845 139 -279 264 -463 443 -648 116 -120 182 -155 292 -155 71
0 74 -1 74 -23 0 -50 43 -139 93 -191 72 -76 142 -108 237 -108 104 0 156 30
256 147 42 48 78 88 80 88 2 0 3 -53 2 -117 -2 -104 0 -124 20 -168 31 -68 75
-112 147 -146 50 -24 73 -29 136 -29 43 0 96 7 123 16 69 24 146 99 194 191
25 48 43 72 46 63 3 -8 26 -79 51 -158 116 -358 302 -726 504 -997 134 -180
527 -550 722 -680 30 -20 165 -92 300 -160 267 -133 333 -155 461 -155 84 0
160 29 215 82 l31 30 114 -84 c62 -47 140 -101 173 -120 149 -88 396 -197 472
-207 66 -9 152 3 204 29 21 11 51 20 67 20 46 0 117 29 159 65 27 23 64 79
118 179 44 80 82 146 86 146 4 0 9 -22 13 -48 9 -72 51 -147 104 -188 124 -94
324 -81 429 29 22 23 79 111 127 195 48 83 91 152 96 152 4 0 10 -25 13 -55
12 -115 89 -229 192 -283 43 -23 63 -27 135 -27 70 0 93 4 130 23 102 53 126
93 220 357 41 117 77 204 87 210 39 23 116 102 134 136 10 20 40 92 68 160 27
68 90 222 140 342 143 341 198 494 277 769 5 16 10 15 57 -8 150 -76 360 -9
440 140 20 37 22 54 20 185 0 79 2 139 6 135 5 -5 32 -44 60 -86 85 -125 165
-172 291 -172 82 0 156 26 215 77 46 38 86 119 92 186 l5 57 77 0 c107 0 154
23 264 132 352 347 614 879 792 1607 65 262 119 548 134 699 13 133 14 407 1
536 -5 52 -12 127 -16 167 l-7 71 40 21 c55 27 128 111 147 168 19 54 20 122
5 177 -12 43 -402 751 -554 1005 -154 258 -263 399 -538 694 -87 95 -117 133
-112 145 37 92 202 609 230 722 32 128 155 856 155 920 0 18 23 49 78 105 58
59 88 101 117 161 22 44 50 88 62 98 22 16 23 16 47 -33 107 -210 481 -678
668 -835 119 -100 458 -282 673 -361 205 -76 456 -128 685 -141 278 -15 454
77 531 279 l21 55 81 4 c97 5 159 33 227 100 61 61 94 137 94 218 0 96 -24
139 -138 250 -75 73 -112 120 -161 200 -84 140 -112 198 -130 267 -21 79 -19
283 5 468 28 227 284 1418 430 2005 43 173 85 358 94 410 17 104 40 506 39
695 -1 187 -37 270 -176 401 -139 132 -184 152 -952 440 -225 85 -439 171
-475 192 -288 169 -1132 689 -1468 904 -127 82 -300 186 -382 232 -679 378
-1312 489 -1914 337 -166 -43 -286 -90 -556 -222 l-244 -120 -356 -19 c-195
-10 -440 -20 -545 -21 l-190 -2 -365 67 c-210 39 -480 97 -636 137 -148 37
-310 75 -358 84 -154 26 -228 21 -675 -51 -375 -61 -417 -66 -440 -53 -45 25
-79 177 -140 618 -16 114 -30 174 -52 227 -93 223 -352 464 -568 528 -80 23
-262 20 -441 -9z m389 -390 c139 -33 192 -82 250 -235 50 -129 62 -213 71
-490 9 -275 20 -349 67 -448 51 -109 183 -210 334 -257 l55 -17 140 35 c461
119 930 153 1188 87 43 -11 127 -45 187 -75 141 -72 276 -117 464 -154 625
-125 1565 -98 1955 56 36 14 112 56 170 93 295 189 528 262 835 263 299 1 612
-82 970 -258 172 -84 316 -171 637 -386 696 -465 1201 -766 1663 -990 339
-164 559 -248 825 -315 207 -52 226 -59 263 -93 57 -52 62 -71 62 -246 -1
-212 -25 -342 -180 -980 -218 -897 -297 -1256 -354 -1615 -63 -396 -69 -772
-14 -945 35 -111 178 -362 283 -498 13 -15 16 -25 8 -23 -129 41 -179 59 -183
67 -10 15 -51 10 -66 -7 -10 -13 -9 -35 7 -127 21 -127 24 -251 6 -284 -12
-21 -20 -23 -105 -23 -270 0 -590 75 -826 193 -282 141 -506 341 -688 612
-155 233 -468 806 -672 1230 -76 160 -82 178 -101 294 -88 537 -315 1068 -627
1469 -62 80 -68 92 -110 230 -110 369 -236 864 -338 1334 -81 373 -88 401
-131 513 -142 370 -392 507 -685 378 -71 -32 -67 -44 4 -15 54 23 76 26 167
26 127 0 173 -17 256 -96 96 -91 168 -241 208 -437 l15 -73 -109 -560 c-60
-308 -111 -562 -113 -564 -2 -2 -42 16 -88 41 -329 178 -723 307 -1069 350
-157 19 -423 19 -559 0 -449 -64 -832 -276 -1119 -620 -227 -272 -391 -631
-395 -869 l-2 -81 65 -35 c36 -19 77 -47 92 -62 17 -17 42 -30 69 -34 l42 -7
-7 -69 c-4 -43 -2 -77 5 -89 15 -28 69 -49 128 -49 l49 0 -1 -92 c-1 -80 14
-168 29 -168 18 0 105 56 217 139 595 444 991 565 1449 447 395 -103 756 -369
1043 -771 178 -249 377 -656 518 -1060 19 -55 94 -255 166 -444 l131 -344
-151 -711 c-84 -391 -153 -713 -155 -715 -4 -4 -45 32 -226 198 -587 537
-1313 943 -1955 1092 l-102 24 7 40 c14 80 7 336 -11 405 -24 91 -63 166 -110
213 -78 78 -341 186 -590 241 -261 59 -291 61 -932 61 -431 0 -614 -3 -680
-13 -358 -52 -722 -174 -839 -282 -56 -52 -101 -140 -122 -240 -12 -58 -15
-115 -12 -250 l5 -176 -116 -28 c-445 -109 -956 -348 -1379 -643 -338 -237
-683 -541 -994 -876 l-109 -117 -15 36 c-26 61 -81 274 -140 537 -49 222 -211
1022 -229 1134 l-6 41 71 38 c42 22 96 62 132 98 80 81 140 205 258 541 215
608 348 893 555 1185 162 227 384 467 508 548 164 106 419 209 629 253 140 30
393 33 518 5 265 -57 584 -216 825 -412 101 -82 160 -101 229 -74 31 11 33 41
12 158 -7 40 -10 71 -7 70 3 -2 53 -27 110 -56 57 -29 105 -51 108 -48 5 4
-26 157 -44 220 -4 16 8 12 72 -23 42 -22 78 -41 81 -41 2 0 4 43 4 96 0 73 3
94 13 90 6 -2 37 -12 67 -21 30 -9 63 -20 73 -26 16 -8 17 -2 17 73 0 108 -14
190 -51 311 -171 557 -619 1015 -1164 1190 -215 69 -308 82 -595 82 -221 0
-272 -3 -380 -23 -138 -25 -324 -70 -412 -101 l-58 -20 -5 22 c-3 12 -47 299
-100 637 l-94 615 29 195 c58 396 124 592 236 704 53 54 99 70 171 63 58 -6
119 -37 180 -90 20 -18 34 -25 31 -17 -2 8 -31 36 -63 62 -182 147 -357 84
-488 -178 -71 -141 -115 -303 -222 -814 -144 -685 -194 -874 -297 -1120 -105
-249 -285 -532 -417 -655 -233 -216 -381 -387 -527 -606 -218 -328 -397 -766
-474 -1154 -20 -104 -25 -115 -85 -205 -93 -138 -179 -242 -291 -350 -215
-207 -342 -250 -537 -183 -186 65 -380 219 -498 397 -34 50 -64 93 -66 96 -6
5 4 -119 12 -160 11 -49 -116 276 -179 461 -139 403 -196 628 -337 1333 -242
1211 -284 1502 -284 1961 0 234 3 294 18 365 38 174 109 295 200 339 56 26
281 69 662 126 171 25 382 62 470 81 216 48 497 143 766 260 910 394 1138 487
1544 629 326 114 694 213 915 244 41 6 86 13 100 15 73 10 310 5 369 -9z
m4518 -3140 c455 -60 938 -262 1330 -557 188 -140 413 -378 555 -583 214 -310
370 -684 448 -1075 35 -176 47 -278 60 -518 10 -186 36 -344 97 -592 34 -141
30 -279 -10 -362 -15 -30 -37 -64 -50 -76 l-24 -23 -18 63 c-37 135 -96 228
-144 228 -37 0 -60 -27 -69 -81 l-8 -44 -47 108 c-26 59 -70 185 -98 279 -130
443 -293 807 -503 1128 -415 632 -946 971 -1561 997 -392 16 -820 -130 -1163
-399 l-63 -49 17 38 c60 142 61 154 24 188 -30 27 -63 21 -134 -24 -36 -23
-66 -37 -66 -31 0 5 14 41 31 80 27 60 30 74 21 95 -13 29 -30 31 -98 10 -58
-18 -67 -18 -59 -5 11 18 -26 78 -55 90 -41 17 -75 6 -171 -55 -46 -30 -85
-50 -87 -45 -2 5 11 50 28 102 59 177 169 372 297 530 133 164 354 343 532
432 144 73 348 135 511 155 110 14 352 12 477 -4z m-3984 -24 c500 -100 927
-441 1157 -923 38 -80 100 -243 100 -264 0 -1 -39 22 -87 52 -47 30 -95 55
-107 56 -67 5 -110 -21 -121 -73 -4 -16 -10 -29 -13 -29 -4 0 -45 12 -91 25
-47 14 -87 23 -89 20 -3 -2 15 -49 38 -105 24 -55 41 -102 39 -104 -2 -3 -67
33 -143 80 -76 47 -140 83 -142 81 -2 -2 23 -72 56 -156 33 -84 60 -155 60
-158 0 -2 -17 9 -37 25 -123 97 -338 219 -498 282 -90 36 -274 85 -370 99
-327 47 -650 -3 -960 -149 -627 -294 -1143 -1019 -1415 -1991 -17 -63 -53
-163 -78 -224 l-47 -110 -7 45 c-3 25 -7 75 -7 113 -1 37 -4 67 -8 67 -14 -1
-143 -188 -169 -243 -27 -61 -44 -139 -36 -169 9 -35 -20 -16 -55 36 -71 104
-80 217 -33 397 39 150 78 332 95 444 7 50 20 118 29 153 12 54 12 61 0 51
-41 -34 6 362 76 641 133 525 421 1017 789 1347 430 385 988 638 1561 707 19
2 118 3 220 1 140 -2 211 -8 293 -24z m2365 -3335 c151 -23 323 -63 442 -103
119 -39 278 -112 326 -148 86 -65 94 -279 22 -578 -16 -71 -29 -129 -27 -131
2 -1 77 -17 167 -35 590 -119 1126 -369 1661 -775 447 -340 902 -809 1305
-1346 120 -160 336 -465 389 -550 l22 -35 -40 32 c-22 17 -141 114 -265 216
-124 101 -227 183 -228 181 -2 -1 99 -161 225 -356 258 -399 312 -498 376
-695 89 -273 122 -486 113 -727 -34 -832 -257 -1612 -609 -2131 -69 -103 -157
-215 -168 -215 -4 0 -10 15 -14 33 -12 60 -85 310 -156 537 -70 222 -73 228
-203 463 -72 130 -132 233 -134 228 -2 -5 11 -354 28 -776 17 -421 30 -775 28
-786 -3 -22 -120 170 -423 696 -113 195 -197 328 -259 408 -50 64 -93 117 -96
117 -9 0 -40 -268 -40 -345 0 -70 44 -479 80 -754 11 -80 18 -146 16 -148 -5
-5 -115 304 -226 637 -158 475 -377 1171 -570 1818 -40 133 -76 242 -80 242
-4 0 -51 -25 -105 -55 -273 -155 -605 -247 -1026 -286 -193 -17 -513 -7 -614
20 -177 47 -304 138 -345 247 -19 51 -20 78 -20 365 0 239 3 310 13 313 6 2
44 11 82 20 104 25 131 48 239 203 119 172 190 257 230 276 17 8 57 20 89 26
237 43 379 234 394 528 4 70 1 135 -6 175 -16 84 -89 230 -145 295 -98 110
-275 225 -435 283 -153 56 -491 130 -590 130 -58 0 -360 -61 -488 -99 -293
-88 -501 -243 -661 -494 -60 -95 -89 -250 -79 -427 16 -273 98 -399 382 -590
214 -144 264 -198 300 -325 29 -101 73 -165 148 -212 l40 -25 -6 -127 c-3 -69
-11 -151 -17 -181 -32 -145 -111 -246 -213 -271 -102 -24 -591 6 -959 61 -254
37 -604 116 -668 150 -17 9 -21 4 -41 -62 -101 -343 -317 -1056 -404 -1333
-187 -599 -450 -1374 -461 -1362 -2 2 7 87 21 188 31 220 81 636 90 734 5 63
-25 368 -37 380 -2 3 -46 -47 -96 -110 -73 -91 -129 -180 -276 -442 -185 -329
-376 -660 -408 -704 l-17 -24 0 35 c-1 19 17 376 39 794 22 417 40 770 40 785
0 18 -42 -48 -134 -209 l-134 -235 -77 -255 c-42 -140 -94 -327 -116 -415 -21
-88 -40 -164 -42 -169 -5 -14 -122 136 -203 259 -346 525 -559 1290 -590 2120
-5 146 -3 201 10 290 41 258 110 489 201 670 33 66 163 277 288 469 126 191
227 349 225 351 -2 1 -122 -94 -267 -211 -145 -118 -265 -214 -267 -214 -11 0
351 511 471 665 252 325 544 649 785 874 685 638 1354 1006 2110 1161 85 17
160 33 167 35 8 3 3 37 -17 116 -40 155 -53 270 -48 392 6 146 25 183 121 236
203 111 509 196 827 230 144 16 917 6 1038 -13z m3897 -346 c3 -5 1 -10 -4
-10 -6 0 -11 5 -11 10 0 6 2 10 4 10 3 0 8 -4 11 -10z m-159 -121 c24 -26 25
-30 7 -20 -13 6 -27 20 -33 31 -15 28 -8 25 26 -11z m-4647 -3230 c27 -5 70
-23 95 -39 52 -34 106 -110 106 -151 l0 -28 -57 27 c-56 25 -66 26 -295 32
-130 3 -239 8 -243 12 -12 12 55 75 113 106 94 50 180 63 281 41z m935 -28
c64 -31 139 -97 133 -115 -2 -7 -87 -13 -243 -16 -233 -5 -240 -6 -296 -32
-66 -31 -72 -24 -39 47 49 106 153 158 305 151 62 -3 91 -11 140 -35z m766
-1910 c80 -11 246 -29 370 -42 124 -12 225 -22 226 -23 0 0 29 -77 64 -171
286 -776 439 -1216 465 -1339 36 -175 8 -470 -81 -856 -76 -330 -116 -445
-282 -827 -86 -199 -160 -359 -163 -355 -9 10 -67 498 -78 650 -6 84 -14 130
-25 147 -20 31 -27 31 -54 3 -36 -39 -664 -982 -672 -1008 -6 -23 -7 -21 -14
15 -4 22 -29 98 -56 170 -26 71 -53 147 -59 167 -13 39 -35 63 -49 54 -5 -3
-17 -29 -27 -58 -26 -81 -110 -235 -230 -423 -59 -93 -148 -240 -196 -325 -49
-85 -92 -161 -97 -169 -7 -12 -65 49 -262 279 -18 22 -20 22 -16 5 10 -39 86
-416 86 -425 0 -12 -187 94 -329 187 -141 92 -273 192 -418 316 l-112 96 -223
375 c-123 206 -229 375 -235 375 -7 1 -21 -11 -30 -26 -40 -61 -14 -350 60
-680 13 -57 22 -103 19 -103 -9 0 -183 124 -262 187 -119 94 -402 378 -499
501 -268 341 -444 703 -546 1127 -163 681 -81 1284 271 1987 l64 128 473 0
472 0 70 -29 c252 -106 584 -158 940 -148 356 11 752 89 1145 226 103 36 107
36 290 12z m907 -3534 c-1 -45 -3 -5 -3 88 0 94 2 130 3 82 2 -48 2 -125 0
-170z"/>
<path d="M24275 31230 c-65 -17 -145 -48 -172 -67 -6 -4 21 -8 61 -8 62 0 78
-4 114 -28 23 -15 54 -46 69 -69 24 -36 28 -51 28 -118 0 -67 -4 -82 -27 -118
-85 -128 -280 -129 -365 -1 -19 29 -28 58 -31 100 -5 71 0 94 34 145 l26 39
-42 -40 c-64 -62 -135 -175 -166 -267 -26 -75 -29 -96 -29 -213 0 -116 3 -138
28 -210 38 -108 88 -187 169 -267 144 -142 380 -216 573 -179 37 7 34 8 -36
12 -119 9 -204 64 -261 172 -19 35 -23 58 -23 132 0 81 3 95 30 144 98 178
342 214 485 71 142 -142 110 -379 -64 -481 -62 -37 -24 -28 59 14 374 187 480
675 220 1006 -157 200 -438 296 -680 231z"/>
<path d="M29692 31235 c-35 -8 -102 -33 -149 -56 -68 -32 -103 -58 -168 -122
-69 -69 -90 -97 -128 -177 -25 -52 -51 -122 -58 -155 -17 -83 -15 -218 5 -295
47 -187 180 -356 346 -438 47 -23 92 -42 100 -42 8 1 0 7 -17 15 -53 23 -129
101 -153 158 -31 69 -32 173 -3 238 28 63 86 125 147 157 44 23 63 27 136 27
73 0 92 -4 136 -27 106 -56 167 -156 167 -273 0 -95 -29 -160 -99 -224 -61
-56 -122 -81 -203 -82 l-56 -1 40 -10 c22 -5 85 -7 140 -5 163 9 294 63 411
170 146 134 217 295 217 492 0 168 -56 321 -158 432 -53 57 -54 57 -34 18 16
-31 20 -55 17 -106 -4 -82 -36 -135 -105 -176 -98 -57 -227 -26 -290 69 -39
58 -44 155 -11 218 45 88 150 137 240 113 21 -6 38 -8 38 -6 0 12 -155 75
-215 88 -86 18 -209 18 -293 0z"/>
<path d="M24598 29943 c7 -3 16 -2 19 1 4 3 -2 6 -13 5 -11 0 -14 -3 -6 -6z"/>
<path d="M20825 17521 c-347 -163 -689 -1041 -746 -1911 -22 -339 9 -793 94
-1355 l23 -150 39 138 c50 176 63 191 183 201 340 28 604 223 797 588 90 173
169 435 200 668 58 445 5 1079 -120 1430 -45 126 -114 248 -177 316 -102 108
-181 129 -293 75z"/>
<path d="M26705 16093 c-171 -69 -307 -256 -404 -558 -184 -567 -128 -1063
126 -1115 168 -35 327 76 450 317 95 185 153 370 189 603 22 146 25 431 5 510
-28 111 -91 204 -162 241 -47 24 -147 25 -204 2z"/>
<path d="M33669 15588 c-174 -61 -336 -211 -505 -468 -259 -395 -352 -778
-232 -956 14 -22 46 -46 85 -66 59 -29 68 -30 150 -26 73 4 98 10 148 35 263
134 544 522 687 945 85 254 56 462 -74 529 -65 34 -174 36 -259 7z"/>
<path d="M23340 15548 c-82 -31 -184 -138 -237 -248 -98 -202 -143 -439 -143
-757 0 -299 53 -505 162 -629 102 -115 282 -104 408 27 102 104 190 341 225
605 29 219 15 550 -30 724 -47 180 -161 300 -285 299 -25 0 -70 -9 -100 -21z"/>
<path d="M38385 44256 c-134 -31 -229 -80 -319 -165 -116 -110 -166 -221 -166
-369 0 -103 14 -188 70 -437 22 -99 43 -217 47 -262 5 -76 4 -84 -21 -128 -70
-119 -232 -158 -371 -89 -70 35 -148 116 -179 184 -36 80 -42 158 -22 274 21
111 13 139 -45 170 l-35 19 -174 -37 c-155 -33 -178 -41 -205 -67 -29 -29 -30
-31 -28 -120 3 -115 32 -238 80 -337 55 -113 194 -250 319 -314 49 -26 130
-59 180 -74 80 -25 104 -28 244 -28 148 0 159 2 250 32 128 43 210 92 302 183
110 110 161 219 174 378 9 101 -8 215 -62 441 -58 238 -64 309 -32 370 32 63
75 85 163 85 81 0 135 -23 198 -83 61 -59 82 -106 81 -187 0 -56 -6 -81 -28
-124 -67 -129 -4 -209 154 -198 118 8 231 91 286 211 71 155 4 361 -164 502
-73 61 -213 133 -307 159 -83 23 -311 29 -390 11z"/>
<path d="M12880 39950 c-396 -26 -797 -144 -1133 -332 -438 -245 -817 -627
-1051 -1059 l-46 -86 82 -16 c189 -36 256 -42 513 -42 264 0 337 6 535 46 296
60 605 182 875 346 303 185 644 518 837 818 67 104 151 256 145 262 -10 10
-136 33 -260 47 -163 19 -356 25 -497 16z"/>
<path d="M41600 39950 c-167 -12 -400 -47 -416 -63 -3 -3 18 -47 47 -98 323
-583 869 -1036 1499 -1243 310 -102 496 -131 845 -131 257 0 324 6 513 42 l82
16 -46 86 c-192 358 -517 714 -864 945 -489 325 -1084 485 -1660 446z"/>
<path d="M42654 37700 c-102 -9 -289 -36 -347 -51 l-38 -10 42 -77 c203 -373
521 -720 875 -954 503 -333 1122 -492 1709 -438 105 10 356 48 364 55 6 7 -87
175 -152 274 -140 213 -364 460 -557 614 -536 430 -1223 642 -1896 587z"/>
<path d="M26110 12763 c-36 -14 -61 -51 -85 -127 -15 -46 -58 -135 -100 -206
-107 -183 -130 -234 -170 -371 -56 -191 -102 -276 -309 -579 -97 -143 -145
-202 -261 -320 -135 -138 -152 -159 -341 -445 -109 -165 -209 -310 -222 -322
l-24 -22 -49 24 c-90 46 -142 25 -186 -74 -37 -82 -113 -300 -113 -322 0 -11
14 -47 31 -81 35 -70 93 -241 104 -308 4 -25 13 -56 20 -70 20 -38 409 -417
505 -492 173 -134 351 -238 447 -263 108 -28 179 9 294 152 101 127 139 161
197 183 67 26 84 25 109 -2 44 -49 46 -64 17 -123 -20 -43 -26 -69 -26 -119 1
-72 17 -116 87 -236 24 -41 52 -104 61 -138 23 -84 11 -147 -50 -251 -59 -100
-126 -262 -126 -304 0 -37 45 -108 79 -126 37 -20 82 -11 168 34 47 25 95 45
107 45 12 0 39 -17 61 -40 27 -28 56 -46 91 -56 54 -16 58 -15 249 20 187 35
252 20 500 -119 294 -164 385 -190 486 -139 64 32 127 136 144 240 4 21 11 51
17 66 11 30 -5 31 228 -8 214 -36 344 -67 545 -130 99 -32 193 -57 208 -57 43
0 79 34 105 99 13 32 25 60 27 62 2 2 20 -8 42 -22 49 -32 107 -53 175 -61 44
-6 69 -2 132 19 161 55 236 109 286 208 16 34 30 68 30 77 0 21 50 79 56 66 3
-5 51 -93 108 -195 117 -210 131 -225 226 -225 40 0 65 7 92 23 l37 23 50 -45
c63 -56 127 -71 253 -62 68 5 112 16 204 51 122 46 162 74 189 130 18 39 20
123 4 195 -10 47 -9 57 15 111 73 160 26 283 -137 366 -78 39 -79 27 9 123 90
98 134 161 134 192 0 41 -13 62 -93 151 l-70 78 46 47 c55 57 81 112 107 231
11 49 24 101 30 116 17 44 12 146 -10 190 -40 84 -84 116 -260 188 -209 85
-268 101 -361 94 -90 -6 -148 -29 -252 -100 l-68 -47 -187 0 c-204 0 -286 12
-377 54 -69 31 -134 92 -184 170 -52 83 -92 116 -140 116 -23 0 -48 -8 -64
-20 l-26 -20 -45 31 c-109 77 -250 27 -233 -83 2 -16 0 -28 -4 -28 -18 0 -358
60 -414 73 -50 12 -117 38 -134 53 -2 2 14 45 35 96 45 111 50 180 17 243 -26
49 -115 136 -203 199 -55 39 -66 53 -75 88 -13 54 -60 88 -119 88 -111 -1
-278 -21 -331 -41 -53 -20 -126 -77 -138 -109 -5 -13 -7 -13 -16 0 -6 8 -16
33 -21 55 -6 22 -46 150 -90 285 -43 135 -83 278 -88 318 -14 98 -110 298
-215 446 -43 60 -79 119 -82 130 -2 12 -13 66 -23 121 -37 193 -121 345 -277
500 -169 170 -309 261 -365 238z m185 -355 c170 -160 238 -292 270 -521 8 -58
43 -126 123 -238 88 -122 169 -288 177 -364 4 -33 38 -156 76 -273 38 -117 80
-254 95 -304 30 -109 46 -142 88 -186 102 -110 306 -104 331 9 10 45 45 62
141 67 l84 5 0 -30 c0 -42 49 -86 96 -87 27 -1 52 -13 101 -51 97 -74 98 -76
61 -163 -22 -53 -38 -77 -59 -87 -16 -9 -35 -29 -44 -45 -35 -68 -11 -111 97
-177 123 -75 159 -91 252 -113 118 -27 556 -100 604 -100 42 0 88 28 101 62 5
15 18 20 61 22 l55 3 42 -52 c89 -111 233 -191 398 -220 101 -17 458 -21 515
-5 19 5 60 25 90 44 152 96 141 91 210 91 57 0 84 -8 220 -63 85 -35 161 -69
168 -74 17 -14 15 -38 -9 -143 -35 -152 -46 -174 -93 -196 -22 -10 -49 -19
-58 -19 -72 -1 -121 -88 -87 -153 7 -11 54 -68 105 -126 l93 -105 -42 -48
c-122 -141 -137 -168 -137 -251 0 -80 53 -144 168 -201 39 -20 72 -42 72 -50
0 -7 -12 -40 -27 -72 -29 -64 -35 -126 -19 -226 8 -53 7 -58 -10 -58 -11 0
-44 -12 -74 -26 -38 -18 -79 -28 -133 -31 l-78 -6 -37 35 c-71 69 -144 89
-227 64 -27 -8 -50 -14 -52 -13 -1 2 -57 102 -124 223 -66 120 -128 227 -136
236 -21 24 -78 33 -110 19 -29 -13 -141 -130 -189 -198 -18 -24 -37 -65 -44
-91 -15 -63 -49 -96 -137 -132 -83 -35 -113 -34 -173 5 -151 97 -243 92 -317
-18 -17 -25 -33 -51 -35 -56 -1 -5 -68 10 -148 34 -290 86 -747 170 -823 151
-71 -18 -131 -107 -167 -251 -25 -99 -25 -100 -54 -97 -33 4 -123 48 -283 138
-202 115 -312 154 -433 154 -67 0 -260 -27 -326 -46 -18 -5 -26 2 -45 35 -32
58 -72 74 -174 69 l-84 -3 20 30 c39 57 77 151 89 216 22 121 -8 249 -91 389
-74 125 -79 160 -26 195 26 17 47 55 47 86 0 30 -85 189 -127 239 -45 53 -121
90 -185 90 -59 0 -189 -41 -247 -77 -24 -16 -90 -82 -145 -147 -56 -65 -109
-124 -119 -130 -21 -13 -78 14 -229 113 -145 95 -229 165 -421 352 l-167 164
-35 124 c-19 68 -48 154 -64 193 l-29 69 25 77 c14 42 26 78 27 79 1 1 22 -5
47 -14 41 -15 47 -15 79 0 89 43 151 117 362 434 196 294 211 314 340 443 133
134 173 186 386 505 81 121 177 325 213 450 32 112 67 189 177 377 34 58 62
111 62 117 0 23 21 8 105 -71z"/>
</g>
</svg>
